<svg width="15" height="29" viewBox="0 0 15 29" fill="none" xmlns="http://www.w3.org/2000/svg">
<path d="M14.5969 2.44508C14.7257 2.30672 14.8263 2.14398 14.8931 1.96612C14.96 1.78827 14.9916 1.5988 14.9863 1.40852C14.981 1.21825 14.9389 1.03089 14.8622 0.857161C14.7856 0.683428 14.6761 0.526718 14.5398 0.395979C14.4036 0.265239 14.2433 0.16303 14.0681 0.0951877C13.8929 0.027345 13.7063 -0.00480298 13.5189 0.000579663C13.3315 0.00596231 13.147 0.0487699 12.9759 0.126558C12.8048 0.204347 12.6505 0.315593 12.5217 0.453945L0.390126 13.4963C0.139593 13.7654 0 14.1216 0 14.4919C0 14.8621 0.139593 15.2184 0.390126 15.4874L12.5217 28.5312C12.6496 28.6726 12.8039 28.7868 12.9756 28.8671C13.1474 28.9474 13.3331 28.9923 13.5221 28.9991C13.711 29.0059 13.8994 28.9745 14.0764 28.9068C14.2533 28.839 14.4152 28.7363 14.5527 28.6045C14.6901 28.4727 14.8004 28.3144 14.8772 28.139C14.9539 27.9635 14.9955 27.7743 14.9997 27.5824C15.0038 27.3905 14.9703 27.1996 14.9012 27.0209C14.832 26.8422 14.7286 26.6793 14.5969 26.5415L3.39019 14.4919L14.5969 2.44508Z" fill="black"/>
</svg>
